<svg xmlns="http://www.w3.org/2000/svg" width="480" height="365" fill="none" viewBox="0 0 480 365">
    <g clip-path="url(#prefix__clip0)">
        <path fill="#ECECEC" d="M277.101 31.4h-67.8v129.9h67.8V31.4z"/>
        <path fill="#B51F30" d="M272.4 263.1c-2.7-2.4-5.5-4.8-8.3-7.1-6.9-5.6-14-11.5-18.7-19.1-7-11.3-7.8-25.4-7.7-36.4.1-9.2.7-18.6 1.4-27.7 1.6-21.6 3.2-44-3.2-65.1-3.1-10.1-6.2-16.4-9.5-19.2l-1.3-1.1-1.1 5.1.2.3c.7 1.1 1.4 2.1 2.1 3.2 1.1 1.6 2.2 3.1 2.8 4.4 2 4.2 3.6 8.8 4.9 13.8 2.3 9 3.5 18.9 3.5 30.2 0 9.3-.7 18.7-1.4 27.8-.8 10.8-1.7 22-1.3 33 .2 8.4 1.2 20.7 7 31.3 5.5 10.2 14.7 17.6 23.6 24.8 3.9 3.2 8 6.5 11.7 10l.5.4 2.5-1-1-1.1c-2.3-2.2-4.5-4.4-6.7-6.5zM323.298 320.501c-.4-1.8-1.4-3.7-3.1-5.8-.7-.9-1.6-1.8-2.6-2.8l-1.6.6c-.5.2-1.1.3-1.6.5l.4.4c1.5 1.5 2.8 2.9 3.8 4.3 1.5 2 2.1 3.6 1.9 5.1-.2 2-2.2 3.7-4.5 4.1-2.5.4-5.1-.7-6.8-1.7-3.8-2.2-7.2-5.8-10.6-11.4-.5-.8-1-1.7-1.6-2.7l-.4.2c-.8.3-1.6.7-2.2 1.2l.1.1c0 .1.1.2.1.3 3 5.8 6.8 10.4 11.3 13.6 2.3 1.6 4.3 2.7 6.4 3.2.9.2 1.8.3 2.7.3 1.7 0 3.3-.4 4.6-1.2 2.1-1.2 3.6-3.3 3.9-5.5 0-.9 0-1.8-.2-2.8z"/>
        <path fill="#ECECEC" d="M329.8 213.9l-8.3 3.1c-2.9 1.1-5.1 3.4-6.1 6.3l-6.3 18c-1.8 5.1.6 10.6 5.5 12.8l3 1.4-10.2 3.9-52.4 19.8-10.2 3.9 1.4-3c2.2-4.9.3-10.7-4.4-13.3l-16.7-9.3c-2.7-1.5-5.9-1.7-8.7-.6l-8.3 3.1c-6.7 2.5-8.9 11-4.2 16.4l46.2 53.7c2.8 3.3 7.4 4.5 11.5 2.9l22.1-8.4c2.6-1 4.6-2.9 5.8-5.4l1.1-2.5c1.1-2.5 3.2-4.5 5.8-5.4l1.2-.4c2.6-1 5.4-.9 7.9.2l2.5 1.1c2.5 1.1 5.3 1.2 7.9.2L338 304c4.1-1.5 6.7-5.5 6.7-9.8l-.9-70.8c0-7.1-7.3-12-14-9.5z"/>
        <path fill="#141134" d="M144.7 64L97 71.3l-8.9 45h-31l70.4-112H76.6L4.3 121.9 0 154h80.6l-6.1 32.5h46.3L127 154h12.3l14.5-37.7h-19.3L144.7 64zM459.898 116.3l10.2-52.3-47.7 7.3-8.8 45h-31.1l70.4-112h-50.9l-72.3 117.6-4.3 32.1h80.7l-6.2 32.5h46.3l6.2-32.5h12.3l14.5-37.7h-19.3zM264.2 185.9c9.2-3.2 17.1-8.2 23.6-15 6.5-6.8 11.9-15.4 16.1-25.7 4.2-10.4 7.6-22.7 10.3-37l4.6-23.6c2.1-10.7 3.2-20.4 3.2-28.9 0-17.9-4.9-31.6-14.7-41.3C297.4 4.8 281.3 0 259 0c-12.7 0-23.6 1.6-32.8 4.8-9.2 3.2-17 8.2-23.4 15-6.4 6.8-11.8 15.4-16.1 25.7-4.3 10.4-7.8 22.7-10.4 37l-4.6 23.6c-2.1 10.7-3.2 20.4-3.2 28.9 0 18 4.9 31.8 14.7 41.4 9.8 9.6 25.9 14.3 48.2 14.3 12.7 0 23.6-1.6 32.8-4.8zm-45.9-50.6c0-3.4.4-7.6 1.2-12.7.8-5.1 1.9-11.4 3.4-18.9l3.5-16.9c2-10 3.8-18.1 5.5-24.2 1.7-6.2 3.6-11 5.8-14.5 2.1-3.5 4.6-5.8 7.5-7.1 2.9-1.2 6.3-1.9 10.4-1.9 5.5 0 9.6 1.1 12.3 3.3 2.7 2.2 4 6.6 4 13 0 3.6-.4 7.9-1.1 13-.7 5.1-1.8 11.3-3.2 18.6l-3.5 17.1c-2 10-3.8 18.1-5.5 24.2-1.7 6.2-3.6 10.9-5.8 14.3-2.1 3.4-4.6 5.7-7.5 7-2.9 1.3-6.3 1.9-10.4 1.9-5.7 0-9.9-1.1-12.6-3.3-2.7-2.2-4-6.5-4-12.9zM327.202 282.7l-1.7-4.5c-.3-.8-1.2-1.2-2.1-.9l-2.2.8-3.4 1.3c-.2.1-.4.2-.4.4l-1.8 4.1c-.2.4 0 .9.4 1.1l4.1 1.8c.2.1.4.1.6 0l3.4-1.3 2.2-.8c.8-.3 1.2-1.2.9-2zM301.3 292.499c.3.8 1.2 1.2 2.1.9l2.2-.8 3.4-1.3c.2-.1.4-.2.4-.4l1.8-4.1c.2-.4 0-.9-.4-1.1l-4.1-1.8c-.2-.1-.4-.1-.6 0l-3.4 1.3-2.2.8c-.8.3-1.2 1.2-.9 2.1l1.7 4.4zM306.203 277.6l1.3 3.4c.1.2.2.4.4.4l4.1 1.8c.4.2.9 0 1.1-.4l1.8-4.1c.1-.2.1-.4 0-.6l-1.3-3.4-.8-2.2c-.3-.8-1.2-1.2-2.1-.9l-4.5 1.7c-.8.3-1.2 1.2-.9 2.1l.9 2.2zM313.703 287.8l-1.8 4.1c-.1.2-.1.4 0 .6l1.3 3.4.9 2.2c.3.8 1.2 1.2 2.1.9l4.4-1.7c.8-.3 1.2-1.2.9-2.1l-.9-2.2-1.3-3.4c-.1-.2-.2-.4-.4-.4l-4.1-1.8c-.5-.2-.9 0-1.1.4z"/>
        <path fill="#E71D2F" d="M269.903 308c-2.1.8-3.1 3.1-2.3 5.2.8 2.1 3.1 3.1 5.2 2.3 2.1-.8 3.1-3.101 2.3-5.201-.8-2.1-3.1-3.099-5.2-2.299zM268.103 292c-.8-2.1-3.1-3.1-5.2-2.3-2.1.8-3.1 3.1-2.3 5.2.8 2.1 3.1 3.1 5.2 2.3 2.1-.8 3.1-3.2 2.3-5.2zM257.301 302.3c-2.1.8-3.1 3.1-2.3 5.2.8 2.1 3.1 3.1 5.2 2.3 2.1-.8 3.1-3.1 2.3-5.2-.9-2-3.2-3.1-5.2-2.3zM275.602 295.3c-2.1.8-3.1 3.1-2.3 5.2.8 2.1 3.1 3.1 5.2 2.3 2.1-.8 3.1-3.1 2.3-5.2-.8-2-3.1-3-5.2-2.3zM315.001 327c-.9 0-1.9-.1-2.8-.4-.1 0-.1 0-.2-.1-.5-.1-1-.3-1.4-.5-.6-.2-1.1-.5-1.5-.8-3.8-2.2-7.2-5.8-10.6-11.4-.5-.8-1-1.7-1.6-2.7l-.4.2c-.8.3-1.6.7-2.2 1.2l.1.1c0 .1.1.2.1.3 3 5.8 6.8 10.4 11.3 13.6 2.3 1.6 4.3 2.7 6.4 3.2.9.2 1.8.3 2.7.3 1.7 0 3.3-.4 4.6-1.2.8-.5 1.6-1.1 2.2-1.8-1 .1-4 .2-6.7 0z"/>
        <path fill="#D3D3D3" d="M282.699 364.9c34.242 0 62-3.895 62-8.7s-27.758-8.7-62-8.7c-34.241 0-62 3.895-62 8.7s27.759 8.7 62 8.7z" opacity=".8"/>
    </g>
    <defs>
        <clipPath id="prefix__clip0">
            <path fill="#fff" d="M0 0H479.2V364.9H0z"/>
        </clipPath>
    </defs>
</svg>
