<svg xmlns="http://www.w3.org/2000/svg" width="1148" height="385" fill="none" viewBox="0 0 1148 385">
    <path fill="#D71F2B" fill-rule="evenodd" d="M197.732 46.095l-3.717 7.713c-.275.977-1.079 1.238-1.963.342l-7.722-3.7c-.355-.181-.797-.629-.884-.896l-2.173-6.688-1.39-4.28c-.522-1.604.384-3.377 1.992-3.9l8.578-2.787c1.608-.522 3.383.38 3.904 1.985l1.391 4.28 2.173 6.686c.173.535-.008.89-.189 1.245zm-23.614 11.223l6.701-2.178c.205-.066.383-.081.536-.094.246-.02.424-.035.536-.254l7.809 3.968c.71.361 1.058 1.431.696 2.14l-3.985 7.801c-.181.355-.631.796-.899.884l-6.433 2.09-4.289 1.393c-1.608.523-3.383-.38-3.904-1.984l-2.781-8.56c-.522-1.605.384-3.377 1.992-3.9l4.021-1.306zm40.607 2.775l-6.701 2.177c-.205.066-.383.081-.535.094-.247.02-.425.035-.537.254l-7.809-3.968c-.71-.361-1.058-1.431-.696-2.14l3.986-7.8c.181-.355.63-.797.898-.884l6.701-2.178 4.289-1.393c1.608-.523 3.383.38 3.904 1.984l2.782 8.56c.521 1.605-.385 3.378-1.993 3.9l-4.289 1.394zm-16.513 24.882l8.577-2.786c1.609-.523 2.514-2.296 1.993-3.9l-1.391-4.28-2.173-6.688c-.087-.267-.528-.715-.883-.895l-7.809-3.97c-.71-.36-1.783-.012-2.145.698l-3.985 7.8c-.181.355-.362.71-.188 1.245l2.172 6.687 1.391 4.28c1.058 1.43 2.832 2.332 4.441 1.81z" clip-rule="evenodd" opacity=".84"/>
    <path fill="#D71F2B" fill-rule="evenodd" d="M905.25 46.714l-3.503-8.144c-.576-.879-.234-1.685 1.067-1.767l8.137-3.52c.382-.155 1.033-.196 1.301-.082l6.701 2.844 4.289 1.821c1.608.683 2.378 2.595 1.694 4.206l-3.648 8.596c-.685 1.612-2.595 2.386-4.203 1.704l-4.289-1.82-6.702-2.846c-.536-.227-.69-.61-.844-.992zm7.271-26.076l-2.851 6.715c-.087.206-.196.355-.29.483-.151.206-.261.356-.166.592l-8.405 3.406c-.765.31-1.837-.145-2.145-.91l-3.389-8.413c-.154-.382-.194-1.033-.08-1.302l2.737-6.447 1.824-4.298c.684-1.611 2.595-2.386 4.203-1.703l8.578 3.641c1.608.683 2.378 2.595 1.694 4.207l-1.71 4.029zm-29.752 29.846l2.85-6.715c.087-.205.197-.355.29-.482.152-.207.261-.356.166-.593l8.406-3.406c.764-.31 1.836.145 2.144.91l3.389 8.413c.154.383.194 1.034.08 1.302l-2.85 6.716-1.825 4.298c-.684 1.611-2.594 2.386-4.203 1.703l-8.577-3.641c-1.609-.683-2.379-2.595-1.695-4.207l1.825-4.298zm-8.227-29.806l-3.649 8.596c-.684 1.611.086 3.523 1.695 4.206l4.288 1.82 6.702 2.845c.268.114.918.073 1.3-.082l8.406-3.406c.764-.31 1.22-1.384.912-2.15l-3.389-8.412c-.154-.383-.308-.765-.844-.993l-6.701-2.844-4.289-1.82c-1.837-.146-3.747.628-4.431 2.24z" clip-rule="evenodd" opacity=".81"/>
    <path fill="#D71F2B" fill-rule="evenodd" d="M1129.04 144.923l-5.68 5.35c-.55.741-1.32.701-1.78-.35l-5.37-5.672c-.24-.27-.47-.795-.45-1.051l.33-6.401.22-4.096c.08-1.536 1.43-2.749 2.96-2.668l8.21.43c1.54.081 2.76 1.428 2.68 2.964l-.22 4.097-.33 6.4c-.03.512-.3.754-.57.997zm-23.76 1.837l6.41.336c.2.01.36.056.49.095.22.063.37.108.54-.041l5.35 5.928c.49.538.43 1.563-.11 2.048l-5.94 5.336c-.27.243-.79.472-1.05.458l-6.16-.322-4.1-.215c-1.54-.081-2.76-1.428-2.68-2.964l.43-8.193c.08-1.536 1.43-2.749 2.97-2.668l3.85.202zm33.65 15.626l-6.41-.337c-.2-.01-.36-.055-.49-.094-.22-.064-.37-.109-.54.041l-5.35-5.928c-.48-.539-.43-1.563.11-2.048l5.94-5.337c.27-.242.79-.471 1.05-.458l6.41.336 4.11.215c1.54.081 2.75 1.428 2.67 2.964l-.43 8.193c-.08 1.536-1.43 2.748-2.97 2.668l-4.1-.215zm-22.18 15.78l8.21.43c1.54.081 2.89-1.132 2.97-2.668l.21-4.096.34-6.401c.01-.256-.22-.781-.46-1.05l-5.35-5.929c-.49-.538-1.51-.592-2.05-.107l-5.94 5.336c-.27.243-.54.485-.57.998l-.33 6.4-.22 4.096c.43 1.563 1.65 2.91 3.19 2.991z" clip-rule="evenodd" opacity=".86"/>
    <path fill="#D71F2B" fill-rule="evenodd" d="M1101.52 359.571l-4.94 1.165c-.55.238-.97-.035-.89-.777l-1.17-4.939c-.05-.231-.01-.602.08-.742l2.27-3.496 1.45-2.238c.55-.839 1.7-1.083 2.54-.537l4.49 2.913c.84.546 1.09 1.7.54 2.539l-1.45 2.238-2.27 3.496c-.18.28-.41.329-.65.378zm-13.98-6.694l3.51 2.276c.1.069.18.146.24.211.1.106.17.183.32.153l1.08 5.079c.1.462-.26 1.021-.73 1.119l-5.08 1.074c-.23.049-.6.007-.74-.084l-3.36-2.184-2.25-1.457c-.84-.546-1.08-1.7-.54-2.539l2.91-4.476c.54-.839 1.7-1.083 2.54-.537l2.1 1.365zm13.88 19.747l-3.51-2.275c-.11-.07-.18-.146-.24-.212-.1-.106-.18-.183-.32-.152l-1.08-5.079c-.1-.462.26-1.022.72-1.119l5.08-1.075c.23-.049.61-.007.75.084l3.5 2.276 2.24 1.456c.84.546 1.09 1.701.54 2.54l-2.9 4.475c-.55.839-1.7 1.083-2.54.537l-2.24-1.456zm-17.63 1.676l4.48 2.912c.84.546 2 .302 2.54-.537l1.46-2.238 2.27-3.496c.09-.14.13-.511.08-.742l-1.09-5.079c-.09-.462-.65-.826-1.12-.728l-5.08 1.074c-.23.049-.46.098-.64.378l-2.27 3.496-1.46 2.238c-.26 1.021-.01 2.175.83 2.722z" clip-rule="evenodd" opacity=".85"/>
    <path fill="#D71F2B" fill-rule="evenodd" d="M24.32 277.709l3.35-6.372c.26-.812.942-1.008 1.659-.23l6.38 3.337c.292.162.65.551.715.778l1.63 5.682 1.043 3.637c.39 1.364-.422 2.827-1.789 3.219l-7.288 2.09c-1.367.392-2.832-.418-3.223-1.782l-1.043-3.637-1.629-5.682c-.13-.455.032-.747.195-1.04zm20.17-8.736l-5.695 1.632c-.174.05-.324.057-.452.064-.208.01-.358.017-.459.198l-6.445-3.564c-.585-.324-.846-1.233-.52-1.818l3.576-6.437c.163-.293.553-.651.78-.716l5.467-1.568 3.645-1.045c1.366-.392 2.831.418 3.222 1.782l2.086 7.273c.39 1.364-.422 2.827-1.789 3.219l-3.416.98zm-34.037-3.523l5.694-1.633c.174-.05.324-.057.453-.063.207-.01.358-.018.458-.198l6.445 3.563c.586.324.846 1.233.521 1.818l-3.577 6.438c-.162.292-.553.65-.78.715l-5.695 1.633-3.644 1.045c-1.367.392-2.831-.418-3.222-1.782l-2.086-7.273c-.391-1.364.422-2.827 1.789-3.218l3.644-1.045zm14.605-20.422l-7.289 2.09c-1.367.391-2.18 1.854-1.788 3.218l1.042 3.637 1.63 5.682c.065.227.423.617.716.779l6.445 3.563c.585.324 1.497.063 1.822-.522l3.577-6.438c.162-.292.325-.585.195-1.039l-1.63-5.683-1.043-3.636c-.846-1.233-2.31-2.043-3.677-1.651z" clip-rule="evenodd" opacity=".79"/>
    <path fill="#D71F2B" fill-rule="evenodd" d="M44.617 129.224l3.344-5.092c.284-.659.879-.782 1.424-.095l5.142 3.136c.235.152.508.495.545.688l.93 4.807.595 3.077c.223 1.153-.581 2.32-1.77 2.566l-6.343 1.312c-1.189.247-2.366-.51-2.589-1.664l-.595-3.076-.93-4.808c-.075-.384.086-.618.247-.851zm17.243-6.084l-4.889 1.027c-.149.031-.275.028-.383.026-.174-.004-.3-.006-.399.138l-5.111-3.325c-.465-.302-.612-1.071-.294-1.537l3.492-5.132c.16-.233.514-.507.71-.548l4.693-.986 3.128-.657c1.174-.246 2.335.509 2.556 1.662l1.177 6.15c.22 1.153-.573 2.319-1.746 2.566l-2.934.616zm-27.882-4.887l4.888-1.027c.15-.031.276-.028.383-.026.175.004.301.006.4-.138l5.11 3.325c.464.302.611 1.071.294 1.537l-3.492 5.132c-.16.233-.514.507-.709.548l-4.888 1.027-3.128.657c-1.174.246-2.335-.509-2.556-1.662l-1.177-6.15c-.22-1.154.573-2.32 1.747-2.566l3.128-.657zm13.45-16.098l-6.335 1.313c-1.188.246-1.992 1.413-1.769 2.566l.595 3.077.93 4.807c.037.192.31.536.545.687l5.173 3.327c.47.303 1.263.139 1.584-.328l3.537-5.133c.161-.233.322-.466.248-.851l-.93-4.807-.595-3.076c-.62-1.072-1.795-1.828-2.983-1.582z" clip-rule="evenodd" opacity=".4"/>
</svg>
