<svg xmlns="http://www.w3.org/2000/svg" width="128" height="128" fill="none" viewBox="0 0 128 128">
    <path fill="#D71F2B" fill-rule="evenodd" d="M67.054 74.588l2.153 2.139c3.498 3.475 3.632 8.956.538 12.565l-11.167 13.233c-1.75 2.139-4.44 3.342-7.265 3.342H43.24c-6.592 0-11.032-6.416-8.88-12.565L56.426 33.15c1.346-3.742 4.844-6.149 8.88-6.149H86.83c2.556 0 4.843.936 6.593 2.674l1.748 1.738c1.75 1.737 4.171 2.673 6.593 2.673h19.508c-1.345-2.54-2.825-4.946-4.44-7.218C105.397 10.694 86.158 0 64.498 0 28.038 0-1.427 30.076.053 66.702 1.4 99.45 28.038 126.319 61.134 127.923 94.5 129.527 122.753 106.001 128 74.588H67.054zm7.01-27.402h-5.381c-.807 0-1.48.669-1.48 1.47v4.278c0 .802.673 1.47 1.48 1.47h5.382c.134 0 .403-.133.538-.267l2.96-2.94c.269-.268.269-.803 0-1.07l-2.96-2.94c-.083.082-.166.062-.281.035-.072-.016-.155-.036-.257-.036zm14.656 7.218h-3.364c-.103 0-.186-.02-.257-.036-.115-.027-.198-.046-.281.036l-2.96-2.94c-.269-.268-.269-.802 0-1.07l2.96-2.94c.135-.134.404-.268.538-.268h5.516c.807 0 1.48.669 1.48 1.47v4.278c0 .802-.673 1.47-1.48 1.47H88.72zm-11.174 8.823h4.305c.807 0 1.48-.669 1.48-1.47v-5.481c0-.134-.135-.401-.269-.535l-2.96-2.94c-.269-.268-.807-.268-1.076 0l-2.96 2.94c-.135.134-.27.267-.27.535v5.48c.27.802.943 1.47 1.75 1.47zm5.528-17.645l-2.825 2.94c-.27.401-.673.401-.942-.133l-2.96-2.807c-.134-.134-.269-.401-.269-.535v-5.481c0-.802.673-1.47 1.48-1.47h4.305c.808 0 1.48.668 1.48 1.47v5.48c0 .268-.134.402-.269.536z" clip-rule="evenodd"/>
</svg>
