<svg xmlns="http://www.w3.org/2000/svg" width="16" height="12" fill="none" viewBox="0 0 16 12">
    <path fill="#141134" d="M13.896 11.6H1.952c-.76 0-1.378-.627-1.378-1.4V1.8c0-.773.617-1.4 1.378-1.4h11.944c.761 0 1.378.627 1.378 1.4v8.4c0 .773-.617 1.4-1.378 1.4zM3.79 2.033c-.888 0-1.608.732-1.608 1.634 0 .902.72 1.633 1.608 1.633.888 0 1.608-.731 1.608-1.633s-.72-1.634-1.608-1.634zm-1.378 7.7h11.025V6.467l-2.513-2.553c-.134-.137-.353-.137-.487 0l-3.89 3.953-1.595-1.62c-.134-.136-.352-.136-.487 0L2.412 8.333v1.4z"/>
</svg>
