<svg xmlns="http://www.w3.org/2000/svg" width="27" height="27" fill="none" viewBox="0 0 27 27">
    <path fill="#FEFEFE" d="M13.503 6.578c-3.83 0-6.92 3.09-6.92 6.922s3.09 6.922 6.92 6.922 6.92-3.09 6.92-6.922-3.09-6.922-6.92-6.922zm0 11.422c-2.476 0-4.5-2.018-4.5-4.5s2.018-4.5 4.5-4.5 4.5 2.018 4.5 4.5-2.024 4.5-4.5 4.5zm8.818-11.706c0 .898-.723 1.615-1.614 1.615-.898 0-1.614-.723-1.614-1.615 0-.891.723-1.614 1.614-1.614.892 0 1.614.723 1.614 1.614zm4.584 1.64c-.102-2.164-.596-4.08-2.18-5.658C23.146.697 21.23.203 19.069.095 16.84-.032 10.16-.032 7.93.095 5.775.197 3.86.69 2.275 2.27.691 3.848.203 5.764.095 7.927c-.127 2.23-.127 8.91 0 11.14.102 2.163.596 4.079 2.18 5.657 1.585 1.579 3.494 2.073 5.656 2.181 2.229.127 8.909.127 11.138 0 2.162-.102 4.078-.596 5.656-2.18 1.578-1.58 2.072-3.495 2.18-5.658.127-2.23.127-8.905 0-11.134zm-2.88 13.525c-.469 1.18-1.378 2.09-2.565 2.566-1.777.705-5.993.543-7.957.543-1.964 0-6.186.156-7.957-.543-1.18-.47-2.09-1.38-2.566-2.566-.705-1.778-.542-5.995-.542-7.959 0-1.964-.157-6.187.542-7.959.47-1.18 1.38-2.09 2.566-2.566 1.777-.705 5.993-.542 7.957-.542 1.964 0 6.186-.157 7.957.542 1.18.47 2.09 1.38 2.566 2.566.705 1.778.542 5.995.542 7.959 0 1.964.163 6.187-.542 7.959z"/>
</svg>
