<svg xmlns="http://www.w3.org/2000/svg" width="119" height="40" fill="none" viewBox="0 0 119 40">
    <path fill="#D71F2B" fill-rule="evenodd" d="M21.209 23.25l.668.667c1.085 1.083 1.127 2.791.167 3.916l-3.466 4.125C18.035 32.625 17.2 33 16.323 33h-2.505c-2.046 0-3.424-2-2.756-3.917l6.848-18.75c.418-1.166 1.503-1.916 2.756-1.916h6.68c.794 0 1.504.291 2.047.833l.542.542c.543.541 1.295.833 2.046.833h6.055c-.418-.792-.877-1.542-1.378-2.25C33.108 3.333 27.138 0 20.415 0 9.1 0-.045 9.375.415 20.792.833 31 9.1 39.375 19.372 39.875c10.355.5 19.123-6.833 20.751-16.625H21.21zm2.172-8.541h-1.67c-.25 0-.46.208-.46.458V16.5c0 .25.21.459.46.459h1.67c.042 0 .125-.042.167-.084l.919-.916c.083-.084.083-.25 0-.334l-.919-.916c-.026.025-.052.02-.087.01-.022-.004-.048-.01-.08-.01zm4.55 2.25h-1.043c-.032 0-.058-.007-.08-.012-.035-.008-.061-.014-.087.012l-.919-.917c-.083-.084-.083-.25 0-.334l.919-.916c.042-.042.125-.083.167-.083H28.6c.25 0 .46.208.46.458V16.5c0 .25-.21.459-.46.459h-.668zm-3.465 2.75h1.336c.25 0 .46-.209.46-.459V17.542c0-.042-.042-.125-.084-.167l-.919-.916c-.083-.084-.25-.084-.334 0l-.918.916c-.042.042-.084.084-.084.167v1.708c.084.25.293.459.543.459zm1.713-5.5l-.877.916c-.084.125-.21.125-.293-.042l-.918-.875c-.042-.041-.084-.125-.084-.166v-1.709c0-.25.21-.458.46-.458h1.336c.25 0 .46.208.46.458v1.709c0 .083-.043.125-.084.166z" clip-rule="evenodd"/>
    <path fill="#FEFEFE" d="M58.54 9.125c-.71-.459-1.711-.709-3.047-.709h-3.717L49.73 18.959h2.84l.626-3.25h1.42c.626 0 1.21-.042 1.753-.167.543-.083 1.044-.291 1.462-.541.417-.25.793-.625 1.044-1.042.292-.458.5-1 .584-1.667.042-.333.084-.666.084-.916.041-1.042-.334-1.792-1.002-2.25zm-1.837 2.833c0 .083-.041.167-.041.292-.042.208-.084.416-.167.583-.084.167-.21.292-.334.375-.126.083-.334.167-.543.208-.209.042-.46.042-.794.042h-1.169l.543-2.708h1.17c.459 0 .834.083 1.043.208.209.125.334.417.334.792-.041.041-.041.125-.041.208zM66.641 19l.919-2.459h-4.635l1.587-8.125H61.63L59.543 19h7.098zM71.775 16.666H75.2L75.45 19h2.882L76.744 8.458h-3.298L67.684 19h2.922l1.17-2.334zm2.84-5.75l.376 3.542h-2.172l1.796-3.542zM83.301 12.916L86.266 19h2.296L90.65 8.416h-2.714l-1.17 6.125-3.006-6.125h-2.254L79.418 19h2.714l1.17-6.084zM98.205 19l.877-2.292h-5.22l.376-1.916h4.05l.877-2.292h-4.468l.334-1.792h4.593l.877-2.292h-7.808L90.606 19h7.599zM102.591 19h2.881l1.587-8.125h2.923l.918-2.459h-9.186l-.96 2.459h3.424L102.591 19zM117.162 8.416h-3.298l-5.762 10.542h2.922l1.128-2.333h3.424l.25 2.333h2.881l-1.545-10.541zm-3.925 6.042l1.796-3.542.376 3.542h-2.172zM52.777 27.666c.126-.583.25-1.041.418-1.416.167-.375.334-.667.584-.875.251-.209.502-.375.835-.459.335-.083.71-.125 1.128-.125h2.004c.209 0 .418 0 .626.042l.919-2.417c-.585 0-1.086-.041-1.545-.041-.46 0-.96-.042-1.503-.042-.877 0-1.67.083-2.38.208-.71.125-1.294.417-1.837.792-.543.375-.96.917-1.336 1.583-.376.667-.627 1.542-.835 2.584-.126.625-.167 1.166-.167 1.708 0 .583.083 1.083.25 1.542.167.458.418.833.752 1.166.334.334.793.584 1.336.75.543.167 1.21.25 2.004.25h1.169c.209 0 .418 0 .626-.041.21 0 .376-.042.585-.042.46-.042.793-.208 1.044-.417.25-.25.46-.625.543-1.166l.877-4.459h-3.8l-.835 2.167h1.378l-.293 1.583h-.96c-.668 0-1.127-.125-1.42-.375-.292-.25-.417-.666-.417-1.25 0-.208 0-.375.042-.625.125-.083.167-.333.208-.625zM69.311 26.166c.042-.166.042-.291.042-.458v-.417c0-.5-.084-.958-.292-1.291-.168-.375-.46-.667-.794-.875-.334-.25-.751-.417-1.252-.5-.502-.125-1.044-.167-1.629-.167h-3.883L59.457 33h2.714l.668-3.459h1.462L65.385 33h2.923l-1.503-3.875c.584-.209 1.127-.542 1.545-1.042.543-.417.835-1.083.96-1.917zm-2.756 0c-.042.209-.125.417-.209.542-.083.125-.208.25-.334.333-.125.084-.334.125-.542.167-.21.042-.501.042-.794.042H63.34l.501-2.542h1.336c.46 0 .835.083 1.044.208.209.125.334.375.334.75.042.167.042.334 0 .5zM74.95 22.416l-5.763 10.542h2.923l1.128-2.333h3.424l.25 2.333h2.881l-1.587-10.541H74.95zm-.627 6.042l1.796-3.541.376 3.541h-2.172zM84.635 26.333c.167-.375.334-.667.585-.875.25-.208.5-.375.835-.458.334-.084.71-.125 1.127-.125H88.393c.125 0 .334 0 .543.041l.918-2.375c-.334 0-.626-.041-.835-.041-.209 0-.417 0-.626-.042h-1.002c-.835 0-1.587.083-2.255.25-.668.167-1.252.458-1.795.833-.501.375-.919.917-1.295 1.584-.334.666-.626 1.5-.793 2.5-.125.625-.167 1.166-.167 1.708 0 .583.083 1.083.209 1.542.167.458.376.875.751 1.166.334.334.794.584 1.336.75.543.167 1.211.25 2.046.25H87.015c.167 0 .376 0 .585-.041l.918-2.417c-.25 0-.46 0-.668.042H85.93c-.292 0-.542-.042-.793-.084-.209-.041-.417-.125-.584-.25-.168-.125-.293-.291-.376-.5-.084-.208-.126-.458-.126-.791 0-.375.042-.792.168-1.292.166-.583.292-1.042.417-1.375zM99 24.5l.376-2.084h-7.85l-.877 2.334h4.593L89.438 31l-.376 2h8.184l.877-2.334h-4.927L99 24.5zM104.137 22.416l-5.762 10.542h2.923l1.127-2.333h3.424l.251 2.333h2.881l-1.587-10.541h-3.257zm-.626 6.042l1.795-3.541.376 3.541h-2.171z"/>
</svg>
