<svg xmlns="http://www.w3.org/2000/svg" width="149" height="50" fill="none" viewBox="0 0 149 50">
    <path fill="#D71F2B" fill-rule="evenodd" d="M26.556 29.063l.837.833c1.36 1.354 1.412 3.49.21 4.896l-4.34 5.156c-.68.833-1.725 1.302-2.823 1.302h-3.137c-2.562 0-4.287-2.5-3.45-4.896l8.573-23.437c.523-1.459 1.883-2.396 3.45-2.396h8.366c.993 0 1.882.364 2.562 1.041l.68.678c.679.677 1.62 1.041 2.561 1.041h7.58c-.522-.99-1.097-1.927-1.725-2.812C41.457 4.167 33.98 0 25.563 0 11.395 0-.054 11.719.521 25.99c.523 12.76 10.874 23.229 23.735 23.854 12.966.625 23.945-8.542 25.984-20.782H26.556zm2.721-10.677h-2.091c-.314 0-.575.26-.575.573v1.666c0 .313.261.573.575.573h2.091c.053 0 .157-.052.21-.104l1.15-1.146c.104-.104.104-.312 0-.416l-1.15-1.146c-.033.032-.065.024-.11.014-.027-.007-.06-.014-.1-.014zm5.699 2.812h-1.307c-.04 0-.073-.008-.1-.014-.045-.01-.077-.018-.11.014l-1.15-1.146c-.104-.104-.104-.312 0-.416l1.15-1.146c.053-.052.157-.104.21-.104h2.143c.314 0 .575.26.575.573v1.666c0 .313-.261.573-.575.573h-.836zm-4.34 3.438h1.673c.314 0 .575-.26.575-.573v-2.136c0-.052-.052-.156-.104-.208l-1.15-1.146c-.105-.104-.314-.104-.419 0l-1.15 1.146c-.052.052-.105.104-.105.208v2.136c.105.312.367.573.68.573zm2.144-6.876l-1.098 1.146c-.104.157-.261.157-.366-.052l-1.15-1.094c-.052-.052-.104-.156-.104-.208v-2.135c0-.313.261-.573.575-.573h1.673c.313 0 .575.26.575.573v2.135c0 .104-.052.156-.105.208z" clip-rule="evenodd"/>
    <path fill="#0F1639" d="M73.297 11.406c-.889-.573-2.144-.885-3.817-.885h-4.653l-2.561 13.177h3.555l.784-4.063h1.777c.785 0 1.517-.052 2.196-.208.68-.104 1.307-.364 1.83-.677.523-.313.993-.781 1.307-1.302.366-.573.627-1.25.732-2.083.052-.417.105-.834.105-1.146.052-1.302-.419-2.24-1.255-2.813zm-2.3 3.542c0 .104-.053.208-.053.364-.052.26-.104.521-.209.73-.104.208-.261.364-.418.468-.157.105-.418.209-.68.26-.261.053-.575.053-.993.053H67.18l.68-3.386h1.463c.576 0 1.046.105 1.308.26.261.157.418.522.418.99-.053.053-.053.157-.053.26zM83.442 23.75l1.15-3.073H78.79l1.987-10.156H77.17L74.555 23.75h8.887zM89.87 20.833h4.287l.313 2.917h3.608L96.09 10.573h-4.13L84.746 23.75h3.66l1.464-2.917zm3.555-7.187l.47 4.427h-2.718l2.248-4.427zM104.3 16.146l3.712 7.604h2.875l2.614-13.23h-3.398l-1.464 7.657-3.764-7.656h-2.823L99.437 23.75h3.399l1.464-7.604zM122.964 23.75l1.098-2.865h-6.535l.471-2.395h5.071l1.098-2.865h-5.594l.418-2.24h5.751l1.098-2.864h-9.777l-2.614 13.229h9.515zM128.457 23.75h3.607l1.987-10.156h3.659l1.15-3.073h-11.501l-1.203 3.073h4.287l-1.986 10.156zM146.7 10.52h-4.13l-7.215 13.178h3.66l1.412-2.917h4.287l.313 2.917h3.608L146.7 10.52zm-4.914 7.553l2.248-4.427.471 4.427h-2.719zM66.084 34.583c.156-.729.313-1.302.522-1.77.21-.47.419-.834.732-1.094.314-.26.628-.469 1.046-.573.418-.104.889-.156 1.412-.156H72.305c.261 0 .523 0 .784.052l1.15-3.021c-.732 0-1.359-.052-1.934-.052s-1.202-.052-1.882-.052c-1.098 0-2.091.104-2.98.26-.889.156-1.62.52-2.3.99-.68.468-1.203 1.145-1.673 1.979-.47.833-.785 1.927-1.046 3.229-.157.781-.21 1.458-.21 2.135 0 .73.105 1.355.315 1.928.209.572.522 1.041.94 1.458.419.416.994.729 1.674.937.68.209 1.516.313 2.509.313h1.464c.261 0 .523 0 .784-.052.261 0 .47-.052.732-.052.575-.052.993-.26 1.307-.521.314-.313.575-.781.68-1.459l1.098-5.572h-4.758l-1.046 2.708h1.726l-.366 1.98H68.07c-.836 0-1.411-.157-1.777-.47-.366-.312-.523-.833-.523-1.562 0-.26 0-.469.052-.781.157-.105.21-.417.262-.782zM86.787 32.708c.053-.208.053-.364.053-.573v-.52c0-.625-.105-1.198-.366-1.615-.21-.469-.575-.833-.993-1.094-.419-.312-.942-.52-1.569-.625-.627-.156-1.307-.208-2.039-.208h-4.862L74.449 41.25h3.398l.837-4.323h1.83l1.36 4.323h3.659l-1.882-4.844c.732-.26 1.411-.677 1.934-1.302.68-.52 1.046-1.354 1.203-2.396zm-3.45 0c-.052.26-.157.521-.261.677-.105.157-.262.313-.419.417-.156.104-.418.156-.68.208-.26.053-.627.053-.993.053h-1.673l.628-3.178h1.673c.575 0 1.045.105 1.307.26.261.157.418.47.418.938.052.209.052.417 0 .625zM93.844 28.02l-7.215 13.178h3.66L91.7 38.28h4.287l.314 2.917h3.607L97.921 28.02h-4.077zm-.785 7.553l2.249-4.427.47 4.427h-2.719zM105.975 32.917c.209-.47.418-.834.732-1.094.314-.26.627-.469 1.046-.573.418-.104.888-.156 1.411-.156h1.516c.157 0 .419 0 .68.052l1.15-2.969c-.418 0-.784-.052-1.045-.052-.262 0-.523 0-.785-.052h-1.254c-1.046 0-1.987.104-2.824.312-.836.209-1.568.573-2.248 1.042-.627.469-1.15 1.146-1.62 1.98-.419.833-.784 1.874-.994 3.124-.156.782-.209 1.459-.209 2.136 0 .729.105 1.354.262 1.927.209.573.47 1.093.941 1.458.418.417.993.73 1.673.938.679.208 1.516.312 2.561.312H108.955c.209 0 .471 0 .732-.052l1.15-3.02c-.313 0-.575 0-.836.051H107.596c-.366 0-.68-.052-.994-.104-.261-.052-.522-.156-.731-.312-.21-.157-.366-.365-.471-.625-.105-.26-.157-.573-.157-.99 0-.469.052-.99.209-1.615.209-.729.366-1.302.523-1.718zM123.958 30.625l.471-2.604H114.6l-1.098 2.916h5.751l-7.267 7.813-.47 2.5h10.247l1.098-2.917h-6.17l7.267-7.708zM130.391 28.02l-7.215 13.178h3.659l1.412-2.917h4.287l.314 2.917h3.607l-1.987-13.177h-4.077zm-.785 7.553l2.248-4.427.471 4.427h-2.719z"/>
</svg>
