<svg xmlns="http://www.w3.org/2000/svg" width="16" height="12" fill="none" viewBox="0 0 16 12">
    <path fill="#C72128" d="M14.5 0h-13C.672 0 0 .672 0 1.5v9C0 11.33.672 12 1.5 12h13c.828 0 1.5-.671 1.5-1.5v-9c0-.828-.672-1.5-1.5-1.5zm-13 1h13c.275 0 .5.225.5.5v1.294c-.684.578-1.662 1.375-4.706 3.79C9.766 7.005 8.725 8.014 8 8c-.725.013-1.769-.996-2.294-1.415C2.662 4.169 1.684 3.372 1 2.795V1.5c0-.275.225-.5.5-.5zm13 10h-13c-.275 0-.5-.225-.5-.5V4.095c.712.585 1.837 1.488 4.084 3.272C5.725 7.88 6.856 9.006 8 9c1.137.01 2.26-1.109 2.916-1.634C13.162 5.582 14.287 4.68 15 4.094v6.407c0 .274-.225.5-.5.5z"/>
</svg>
