<svg xmlns="http://www.w3.org/2000/svg" width="16" height="12" fill="none" viewBox="0 0 16 12">
    <path fill="#C72128" d="M15.697 3.962c.122-.096.303-.006.303.147V10.5c0 .828-.672 1.5-1.5 1.5h-13C.672 12 0 11.328 0 10.5V4.112c0-.156.178-.243.303-.146.7.543 1.628 1.234 4.816 3.55.66.48 1.772 1.493 2.881 1.487 1.116.01 2.25-1.025 2.884-1.487 3.188-2.316 4.113-3.01 4.813-3.554zM8 8c.725.012 1.769-.912 2.294-1.294 4.147-3.01 4.462-3.272 5.418-4.022.182-.14.288-.359.288-.59V1.5c0-.828-.672-1.5-1.5-1.5h-13C.672 0 0 .672 0 1.5v.594c0 .231.106.447.287.59.957.747 1.272 1.013 5.42 4.022C6.23 7.087 7.274 8.012 8 8z"/>
</svg>
