<svg xmlns="http://www.w3.org/2000/svg" width="10" height="16" fill="none" viewBox="0 0 10 16">
    <path fill="#C72128" d="M8.5 0h-7C.672 0 0 .672 0 1.5v13c0 .828.672 1.5 1.5 1.5h7c.828 0 1.5-.672 1.5-1.5v-13C10 .672 9.328 0 8.5 0zm-2 14.125c0 .206-.169.375-.375.375h-2.25c-.206 0-.375-.169-.375-.375v-.25c0-.206.169-.375.375-.375h2.25c.206 0 .375.169.375.375v.25zm2-2.5c0 .206-.169.375-.375.375h-6.25c-.206 0-.375-.169-.375-.375v-9.75c0-.206.169-.375.375-.375h6.25c.206 0 .375.169.375.375v9.75z"/>
</svg>
