<svg xmlns="http://www.w3.org/2000/svg" width="41" height="40" fill="none" viewBox="0 0 41 40">
    <circle cx="20.852" cy="20" r="20" fill="#C72128"/>
    <path fill="#FEFEFE" fill-rule="evenodd" d="M21.662 23.25l.668.667c1.086 1.083 1.127 2.791.167 3.916l-3.466 4.125c-.543.667-1.378 1.042-2.254 1.042H14.27c-2.046 0-3.424-2-2.756-3.917l6.848-18.75c.418-1.166 1.503-1.916 2.756-1.916h6.68c.794 0 1.504.291 2.047.833l.543.542c.542.541 1.294.833 2.046.833h6.054c-.418-.792-.877-1.542-1.378-2.25C33.561 3.333 27.591 0 20.869 0 9.553 0 .409 9.375.869 20.792 1.285 31 9.552 39.375 19.824 39.875c10.355.5 19.123-6.833 20.752-16.625H21.662zm2.172-8.541h-1.67c-.25 0-.46.208-.46.458V16.5c0 .25.21.459.46.459h1.67c.042 0 .125-.042.167-.084l.919-.916c.083-.084.083-.25 0-.334L24 14.71c-.026.025-.052.02-.087.01-.022-.004-.048-.01-.08-.01zm4.551 2.25h-1.044c-.032 0-.058-.007-.08-.012-.035-.008-.061-.014-.087.012l-.918-.917c-.084-.084-.084-.25 0-.334l.918-.916c.042-.042.125-.083.167-.083H29.053c.25 0 .46.208.46.458V16.5c0 .25-.21.459-.46.459h-.668zm-3.466 2.75h1.336c.25 0 .46-.209.46-.459V17.542c0-.042-.042-.125-.084-.167l-.918-.916c-.084-.084-.25-.084-.334 0l-.919.916c-.042.042-.084.084-.084.167v1.708c.084.25.293.459.543.459zm1.713-5.5l-.877.916c-.084.125-.209.125-.292-.042l-.919-.875c-.042-.041-.084-.125-.084-.166v-1.709c0-.25.21-.458.46-.458h1.336c.25 0 .46.208.46.458v1.709c0 .083-.043.125-.084.166z" clip-rule="evenodd"/>
</svg>
