<svg xmlns="http://www.w3.org/2000/svg" width="15" height="16" fill="none" viewBox="0 0 15 16">
    <path fill="#FEFEFE" d="M11 10c-.894 0-1.694.39-2.244 1.01L5.772 9.143c.3-.732.303-1.556 0-2.288l2.984-1.865C9.306 5.609 10.106 6 11 6c1.656 0 3-1.344 3-3s-1.344-3-3-3-3 1.344-3 3c0 .406.081.79.225 1.144L5.241 6.009C4.694 5.391 3.894 5 3 5 1.344 5 0 6.344 0 8s1.344 3 3 3c.894 0 1.694-.39 2.244-1.01l2.984 1.866c-.147.353-.225.738-.225 1.144 0 1.656 1.344 3 3 3s3-1.344 3-3C14 11.344 12.656 10 11 10zm0-9c1.103 0 2 .897 2 2s-.897 2-2 2-2-.897-2-2 .897-2 2-2zm-8 9c-1.103 0-2-.897-2-2s.897-2 2-2 2 .897 2 2-.897 2-2 2zm8 5c-1.103 0-2-.897-2-2s.897-2 2-2 2 .897 2 2-.897 2-2 2z"/>
</svg>
