<svg xmlns="http://www.w3.org/2000/svg" width="34" height="27" fill="none" viewBox="0 0 34 27">
    <path fill="#FEFEFE" d="M30.057 6.679c.02.293.02.586.02.88 0 8.94-6.908 19.241-19.534 19.241-3.89 0-7.503-1.11-10.543-3.036.553.063 1.084.084 1.658.084 3.21 0 6.164-1.068 8.524-2.89-3.019-.062-5.548-2.01-6.42-4.69.426.063.85.105 1.297.105.616 0 1.233-.084 1.807-.23-3.146-.628-5.506-3.35-5.506-6.637v-.084c.914.502 1.977.816 3.104.858-1.85-1.214-3.061-3.287-3.061-5.632 0-1.256.34-2.408.935-3.413 3.38 4.104 8.46 6.784 14.157 7.077-.106-.502-.17-1.026-.17-1.55C16.325 3.037 19.385 0 23.19 0c1.977 0 3.762.817 5.016 2.136 1.552-.293 3.04-.859 4.358-1.633-.51 1.57-1.594 2.889-3.019 3.726 1.382-.146 2.721-.523 3.954-1.046-.935 1.34-2.104 2.533-3.443 3.496z"/>
</svg>
