<svg xmlns="http://www.w3.org/2000/svg" width="22" height="18" fill="none"><path fill="#FEFEFE" d="M12.104 9.643H6.32a.322.322 0 00-.322.321v.643c0 .177.145.322.322.322h5.785a.323.323 0 00.322-.322v-.643a.322.322 0 00-.322-.321zm3.857-3.857H6.32a.322.322 0 00-.322.321v.643c0 .177.145.321.322.321h9.642a.322.322 0 00.322-.321v-.643a.322.322 0 00-.322-.321zM11.14 0C5.459 0 .854 3.74.854 8.357c0 1.913.8 3.664 2.126 5.075-.599 1.583-1.845 2.925-1.865 2.94A.965.965 0 001.819 18c2.47 0 4.42-1.033 5.588-1.86 1.162.365 2.415.574 3.733.574 5.681 0 10.286-3.74 10.286-8.357C21.426 3.741 16.82 0 11.14 0zm0 15.429a11.07 11.07 0 01-3.343-.515l-.61-.193-.523.37c-.924.655-2.35 1.418-4.122 1.591.482-.607 1.197-1.623 1.639-2.796l.285-.752-.55-.586c-1.161-1.23-1.776-2.68-1.776-4.19 0-3.898 4.038-7.072 9-7.072s9 3.174 9 7.071c0 3.898-4.038 7.072-9 7.072z"/></svg>