<svg xmlns="http://www.w3.org/2000/svg" width="21" height="18" fill="none"><path fill="#141134" d="M11.486 9.643H5.58a.325.325 0 00-.328.321v.643c0 .177.148.322.328.322h5.906c.18 0 .328-.145.328-.322v-.643a.325.325 0 00-.328-.321zm3.937-3.857H5.58a.325.325 0 00-.328.321v.643c0 .177.148.321.328.321h9.843c.18 0 .328-.144.328-.321v-.643a.325.325 0 00-.328-.321zM10.5 0C4.703 0 .003 3.74.003 8.357c0 1.913.816 3.664 2.17 5.075C1.56 15.015.29 16.357.268 16.372a.951.951 0 00-.188 1.045.986.986 0 00.906.583c2.522 0 4.511-1.033 5.704-1.86 1.186.365 2.465.574 3.81.574 5.8 0 10.499-3.74 10.499-8.357C21 3.741 16.3 0 10.501 0zm0 15.429c-1.16 0-2.309-.173-3.412-.515l-.623-.193-.533.37c-.943.655-2.4 1.418-4.208 1.591.492-.607 1.222-1.623 1.673-2.796l.292-.752-.562-.586c-1.185-1.23-1.813-2.68-1.813-4.19 0-3.898 4.122-7.072 9.186-7.072 5.065 0 9.187 3.174 9.187 7.071 0 3.898-4.122 7.072-9.187 7.072z"/></svg>