<svg xmlns="http://www.w3.org/2000/svg" width="24" height="18" fill="none"><path fill="#141134" d="M23.094 13.765c-.457.574-1.57.983-1.57.983l-8.296 2.977v-2.197l6.104-2.176c.692-.246.8-.598.235-.784-.563-.186-1.582-.134-2.274.117l-4.065 1.436V11.84a14.35 14.35 0 013.062-.68c1.655-.182 3.677.024 5.267.627 1.788.566 1.99 1.404 1.537 1.978zm-9.077-3.742V4.401c0-.66-.121-1.266-.74-1.44-.474-.154-.769.287-.769.946V17.98l-3.794-1.206V0c1.614.3 3.964 1.007 5.226 1.432 3.216 1.104 4.304 2.48 4.304 5.574 0 3.013-1.86 4.158-4.227 3.017zM1.749 15.298C-.088 14.78-.395 13.7.442 13.081c.773-.574 2.091-1.007 2.091-1.007l5.44-1.933v2.204l-3.915 1.4c-.691.247-.797.598-.234.784.562.187 1.581.134 2.273-.117l1.877-.684v1.975c-2.087.376-4.102.295-6.225-.405z" opacity=".4"/></svg>