<svg xmlns="http://www.w3.org/2000/svg" width="15" height="16" fill="none"><path fill="#FEFEFE" d="M11 10c-.894 0-1.694.39-2.244 1.01L5.772 9.143c.3-.732.303-1.556 0-2.288L8.756 4.99A3.001 3.001 0 1011 0a3.001 3.001 0 00-2.775 4.144L5.241 6.009A2.983 2.983 0 003 5a3.001 3.001 0 000 6c.894 0 1.694-.39 2.244-1.01l2.984 1.866A3.001 3.001 0 1014.003 13 3.006 3.006 0 0011 10zm0-9c1.103 0 2 .897 2 2s-.897 2-2 2-2-.897-2-2 .897-2 2-2zm-8 9c-1.103 0-2-.897-2-2s.897-2 2-2 2 .897 2 2-.897 2-2 2zm8 5c-1.103 0-2-.897-2-2s.897-2 2-2 2 .897 2 2-.897 2-2 2z"/></svg>