<svg xmlns="http://www.w3.org/2000/svg" width="8" height="16" fill="none" viewBox="0 0 8 16">
    <path fill="#FEFEFE" fill-rule="evenodd" d="M4.013 3.68C2.683 2.446 1.344 1.22 0 0c.008 2.153.008 4.307 0 6.46C1.249 7.624 2.48 8.804 3.691 10h.493c.315 0 .63 0 .945-.003-.688-.68-1.39-1.35-2.092-2.021-.67-.641-1.34-1.282-1.998-1.93-.007-1.042-.005-2.084-.003-3.127l.001-.625c.996.91 1.989 1.822 2.98 2.736.758-.722 1.533-1.43 2.307-2.138l.644-.588c.004.899.003 1.798.003 2.697V6.06H8c-.002-.844-.001-1.688 0-2.532C8 2.356 8 1.184 7.995.012 7.231.702 6.478 1.4 5.724 2.1c-.569.528-1.138 1.056-1.711 1.58zM4.309 6H2.872c.685.68 1.386 1.35 2.086 2.019.672.642 1.344 1.284 2.003 1.935.008 1.051.006 2.102.004 3.153l-.002.6c-.995-.91-1.988-1.822-2.979-2.736-.758.722-1.533 1.43-2.308 2.138l-.644.588c-.004-.916-.004-1.832-.003-2.748V9.94H0c.002.836.001 1.672 0 2.508 0 1.18-.001 2.36.004 3.54.766-.69 1.521-1.391 2.277-2.092.567-.527 1.134-1.054 1.706-1.576C5.318 13.554 6.656 14.781 8 16c-.007-2.153-.007-4.307 0-6.46C6.752 8.375 5.521 7.195 4.309 6z" clip-rule="evenodd"/>
</svg>
