<svg xmlns="http://www.w3.org/2000/svg" width="34" height="27" fill="none"><path fill="#FEFEFE" d="M30.057 6.679c.02.293.02.586.02.88 0 8.94-6.908 19.241-19.534 19.241A19.62 19.62 0 010 23.764a14.37 14.37 0 001.658.084c3.21 0 6.164-1.068 8.524-2.89-3.019-.062-5.548-2.01-6.42-4.69.426.063.85.105 1.297.105.616 0 1.233-.084 1.807-.23-3.146-.628-5.506-3.35-5.506-6.637v-.084a7.004 7.004 0 003.104.858c-1.85-1.214-3.061-3.287-3.061-5.632 0-1.256.34-2.408.935-3.413 3.38 4.104 8.46 6.784 14.157 7.077a7.54 7.54 0 01-.17-1.55C16.325 3.037 19.385 0 23.19 0c1.977 0 3.762.817 5.016 2.136A13.656 13.656 0 0032.564.503a6.758 6.758 0 01-3.019 3.726 13.926 13.926 0 003.954-1.046 14.632 14.632 0 01-3.443 3.496z"/></svg>